<svg width="920" height="531" viewBox="0 0 920 531" fill="none" xmlns="http://www.w3.org/2000/svg">
<g clip-path="url(#clip0_63_2)">
<path d="M33.4399 368.09C21.2199 368.09 5.67995 367.9 5.52995 367.9C5.34995 367.87 1.74995 367.13 0.559949 365.07C0.139949 364.34 0.0699493 363.54 0.359949 362.68C2.45995 356.39 4.15995 350.01 5.40995 343.73C5.42995 343.53 7.97995 322.99 11.3199 316.3C14.5999 309.74 19.6999 287.53 21.4199 274.61C23.0899 262.09 59.83 173.48 60.2 172.58C60.3 172.47 67.4299 165.26 71.9999 153.62C76.6999 141.66 102.07 100.37 105.33 97.52C108.69 94.58 119.27 92.92 119.72 92.85C119.8 92.85 123.72 93.6 126.92 93.6C128.78 93.6 130.02 93.36 130.62 92.88C131.21 92.41 131.8 92.18 132.44 92.18C134.86 92.18 138.12 95.52 143.02 103.02C150.44 114.37 169.59 151.27 168.75 167.16C168.55 170.88 168.91 173.98 169.22 176.72C170.27 185.98 170.91 191.56 150.15 205.19L150.1 205.22L150.04 205.2C149.97 205.18 143.19 202.91 140.26 188.67C137.24 173.99 125.65 137.77 119.42 137.77C113 138.2 89.0699 179.03 81.0799 205.96C73.5099 231.46 54.0199 283.97 52.1399 289.03C57.5199 285.1 124.99 235.92 147.91 222.26C171.56 208.16 218.6 185.15 221.73 185.15C222.36 185.15 222.78 185.37 222.98 185.8C223.68 187.32 221.3 191.51 216.77 196.73C214.28 199.6 212.3 204.43 210.39 209.1C208.05 214.8 205.85 220.19 202.83 222.04C197.64 225.23 187.4 233.07 186.47 233.78L218.06 350.03C218.07 350.12 218.85 356.91 212.92 359.03C207.08 361.12 194.07 363.65 193.94 363.67C193.92 363.67 193.86 363.67 193.74 363.67C192.68 363.67 187.33 363.32 185.79 356.4C184.12 348.9 165.33 282.48 165.14 281.81C165.07 281.49 158.71 250.72 147.02 250.72C146.24 250.72 145.44 250.86 144.65 251.13C131.34 255.71 101.16 279.95 100.86 280.19L76.41 297.9L49.8699 324.86L47.7999 346.28L53.6899 363.51C53.6999 363.58 53.8099 364.67 52.8899 365.76C51.8499 367 49.9499 367.72 47.2599 367.89C45.2699 368.01 40.6199 368.08 33.4399 368.08V368.09Z" fill="white"/>
<path d="M132.45 92.31C134.51 92.31 137.51 94.81 142.93 103.1C150.1 114.06 169.48 151.15 168.64 167.16C167.8 183.18 177.07 187.39 150.1 205.09C150.1 205.09 143.36 202.98 140.41 188.65C137.48 174.4 125.79 137.65 119.44 137.65C119.4 137.65 119.37 137.65 119.33 137.65C113.01 138.07 88.98 178.95 80.98 205.93C72.97 232.9 51.9 289.38 51.9 289.38C51.9 289.38 123.97 236.7 148 222.37C172.02 208.04 218.81 185.28 221.76 185.28C224.71 185.28 222.18 190.34 216.7 196.66C211.22 202.98 208.27 218.58 202.79 221.95C197.31 225.32 186.35 233.75 186.35 233.75L217.96 350.08C217.96 350.08 218.8 356.82 212.9 358.93C207 361.04 193.93 363.57 193.93 363.57C193.93 363.57 193.87 363.57 193.75 363.57C192.71 363.57 187.44 363.23 185.92 356.4C184.23 348.81 165.27 281.8 165.27 281.8C165.27 281.8 158.96 250.61 147.03 250.61C146.25 250.61 145.44 250.74 144.62 251.03C131.13 255.67 100.79 280.11 100.79 280.11L76.34 297.81L49.79 324.78L47.68 346.27L53.58 363.55C53.58 363.55 54 367.34 47.26 367.76C45.01 367.9 39.63 367.95 33.45 367.95C21.09 367.95 5.54004 367.76 5.54004 367.76C5.54004 367.76 -0.77996 366.5 0.48004 362.7C1.74004 358.91 3.85004 352.16 5.54004 343.73C5.54004 343.73 8.07004 323.08 11.44 316.33C14.81 309.59 19.87 287.25 21.56 274.6C23.25 261.96 60.34 172.6 60.34 172.6C60.34 172.6 67.5 165.44 72.14 153.63C76.78 141.83 102.06 100.52 105.44 97.57C108.82 94.62 119.77 92.93 119.77 92.93C119.77 92.93 123.7 93.68 126.95 93.68C128.57 93.68 130.03 93.49 130.73 92.93C131.24 92.52 131.81 92.26 132.47 92.26M132.45 92.06C131.78 92.06 131.16 92.3 130.55 92.79C129.98 93.24 128.73 93.48 126.93 93.48C123.74 93.48 119.84 92.74 119.8 92.74H119.76H119.72C119.27 92.81 108.65 94.47 105.26 97.44C102 100.3 76.6 141.63 71.9 153.59C67.34 165.2 60.23 172.4 60.15 172.47L60.11 172.51L60.09 172.56C59.72 173.45 22.97 262.09 21.3 274.62C19.58 287.52 14.48 309.72 11.21 316.27C7.86004 322.97 5.39004 342.9 5.28004 343.75C4.03004 350.01 2.33004 356.38 0.23004 362.67C-0.0699601 363.56 3.98457e-05 364.4 0.44004 365.16C1.66004 367.27 5.32004 368.02 5.47004 368.05C5.67004 368.05 21.21 368.24 33.43 368.24C40.61 368.24 45.27 368.18 47.26 368.05C49.99 367.88 51.92 367.15 52.98 365.88C53.93 364.75 53.82 363.61 53.81 363.56V363.53L53.8 363.5L47.92 346.27L50.01 324.92L76.5 298.01L100.91 280.34C101.22 280.09 131.39 255.86 144.68 251.29C145.46 251.02 146.25 250.88 147.01 250.88C158.6 250.88 164.94 281.56 165 281.87C165.19 282.56 183.99 348.98 185.65 356.47C187.21 363.48 192.65 363.84 193.72 363.84C193.85 363.84 193.92 363.84 193.92 363.84C194.08 363.81 207.1 361.28 212.95 359.19C218.97 357.04 218.18 350.14 218.17 350.07L186.6 233.87C187.87 232.9 197.8 225.31 202.88 222.19C205.93 220.31 208.14 214.91 210.49 209.19C212.4 204.53 214.38 199.71 216.85 196.85C221.48 191.51 223.81 187.37 223.08 185.78C222.93 185.45 222.57 185.06 221.72 185.06C218.58 185.06 171.49 208.07 147.83 222.18C125.31 235.61 59.76 283.33 52.39 288.72C54.96 281.81 73.78 230.99 81.19 206.03C84.83 193.76 92.23 177.29 100.98 161.99C109.09 147.79 116.47 138.12 119.32 137.93C119.35 137.93 119.38 137.93 119.41 137.93C125.34 137.93 137.01 173.58 140.13 188.73C143.08 203.04 149.71 205.27 149.99 205.36L150.1 205.4L150.2 205.34C171.03 191.67 170.39 186.06 169.33 176.75C169.02 174.01 168.67 170.92 168.86 167.21C169.7 151.3 150.53 114.35 143.11 103C138.18 95.46 134.88 92.1 132.42 92.1L132.45 92.06Z" fill="white"/>
<path d="M251.76 364.36C246.3 364.36 242.76 361.84 240.59 356.44C238.67 351.64 241.94 344.41 245.41 336.75C246.51 334.31 247.66 331.78 248.6 329.37C252.34 319.82 248.63 298.88 248.6 298.67C248.6 298.08 248.16 240.92 246.49 205.09C244.82 169.26 238.55 121.29 238.48 120.81V120.74L238.52 120.7C247.67 113.22 253.19 103.14 253.24 103.04L253.27 102.99H253.32C253.77 102.87 254.2 102.82 254.6 102.82C255.75 102.82 256.73 103.25 257.52 104.09C259.87 106.6 259.87 112.01 259.82 113.62L284.14 77.56L289.71 89.14L288.01 99.75C287.96 101.2 282.55 246.48 281.72 288.97C281.16 317.64 282.26 321.11 284.09 326.85C284.97 329.62 286.07 333.07 287.19 340.37C288.62 349.67 288.15 355.89 285.8 358.84C284.22 360.82 282.13 360.98 280.74 361.08C280.43 361.1 280.15 361.12 279.91 361.16C279.16 361.29 277.72 361.37 275.73 361.49C270.94 361.77 263.69 362.2 257.16 363.69C255.18 364.14 253.36 364.37 251.74 364.37L251.76 364.36Z" fill="white"/>
<path d="M284.13 77.81L289.61 89.19L287.9 99.73C287.9 99.73 282.45 245.98 281.61 288.97C280.77 331.96 283.72 318.47 287.09 340.39C290.46 362.31 282.45 360.62 279.93 361.04C277.4 361.46 266.44 361.46 257.17 363.57C255.17 364.03 253.38 364.24 251.78 364.24C245.99 364.24 242.71 361.36 240.73 356.4C238.2 350.08 244.94 339.12 248.74 329.43C252.53 319.74 248.74 298.66 248.74 298.66C248.74 298.66 248.32 241.34 246.63 205.09C244.94 168.84 238.62 120.8 238.62 120.8C247.89 113.21 253.37 103.1 253.37 103.1C253.82 102.99 254.23 102.95 254.62 102.95C260.43 102.95 259.69 114.06 259.69 114.06L284.14 77.81M284.16 77.31L283.92 77.67L259.96 113.19C259.99 111.19 259.82 106.35 257.62 104C256.81 103.13 255.79 102.69 254.61 102.69C254.2 102.69 253.76 102.74 253.3 102.85L253.19 102.88L253.14 102.98C253.09 103.08 247.58 113.14 238.45 120.61L238.34 120.7L238.36 120.84C238.42 121.32 244.7 169.29 246.37 205.11C248.04 240.94 248.47 298.09 248.48 298.67C248.52 298.92 252.22 319.83 248.5 329.34C247.56 331.75 246.42 334.27 245.31 336.71C241.83 344.39 238.55 351.65 240.49 356.5C242.67 361.96 246.26 364.5 251.77 364.5C253.39 364.5 255.23 364.27 257.21 363.82C263.73 362.34 270.97 361.91 275.76 361.62C277.76 361.5 279.2 361.42 279.96 361.29C280.18 361.25 280.46 361.23 280.77 361.21C282.18 361.11 284.3 360.95 285.92 358.92C288.29 355.94 288.77 349.69 287.33 340.35C286.21 333.04 285.1 329.59 284.22 326.81C282.39 321.08 281.29 317.62 281.85 288.97C282.68 246.47 288.09 101.2 288.14 99.73L289.85 89.22V89.14L289.83 89.07L284.35 77.69L284.16 77.3V77.31Z" fill="white"/>
<path d="M342.42 362.12C341.78 362.12 341.17 362.08 340.58 362C321.7 359.37 318.63 341.85 319.82 316.35C321.12 288.6 321.04 256.5 319.6 228.28C318.69 210.43 316.74 151.71 330.01 145.55C333.28 144.03 337.25 141.86 341.45 139.56C350.28 134.73 359.41 129.73 363.92 129.73C365.14 129.73 365.98 130.11 366.42 130.86C369.64 136.38 367.54 142.7 358.4 155.02L354.23 190.6L431.31 167.43L431.33 167.57C431.35 167.67 432.91 177.85 422.85 184.97C422.26 185.28 365.03 215.46 357.14 228.35C357.1 229.1 351.29 309.31 354.2 319.29C354.51 320.35 354.75 321.42 354.98 322.44C356.19 327.77 357.24 332.38 367.31 332.38C373.88 332.38 384.02 330.42 398.3 326.37L398.78 326.23L398.42 326.58C398.05 326.94 361.07 362.14 342.41 362.14L342.42 362.12Z" fill="white"/>
<path d="M363.92 129.85C365.05 129.85 365.88 130.17 366.31 130.91C369.26 135.97 368 141.87 358.3 154.93L354.09 190.75L431.22 167.57C431.22 167.57 432.91 177.69 422.79 184.85C422.79 184.85 365.05 215.2 357.04 228.26C357.04 228.26 351.14 309.18 354.09 319.3C356.04 325.98 355.23 332.48 367.32 332.48C373.54 332.48 383.17 330.76 398.34 326.47C398.34 326.47 361.24 361.99 342.42 361.99C341.79 361.99 341.19 361.95 340.6 361.87C322.48 359.34 318.68 343.33 319.95 316.35C321.21 289.38 321.19 256.92 319.73 228.26C318.27 199.6 318.27 151.13 330.07 145.65C340.15 140.97 357.3 129.84 363.93 129.84M363.92 129.6C359.38 129.6 350.24 134.61 341.39 139.45C337.19 141.75 333.22 143.92 329.95 145.44C316.61 151.63 318.56 210.42 319.47 228.29C320.91 256.5 320.99 288.6 319.69 316.35C318.49 341.91 321.58 359.48 340.56 362.13C341.15 362.21 341.77 362.25 342.41 362.25C361.11 362.25 398.13 327.01 398.51 326.66L399.24 325.97L398.27 326.24C384 330.28 373.87 332.24 367.32 332.24C357.35 332.24 356.36 327.9 355.11 322.4C354.88 321.37 354.64 320.31 354.32 319.24C351.45 309.4 357.09 230.97 357.28 228.35C365.28 215.46 422.32 185.38 422.9 185.08C433.05 177.89 431.48 167.64 431.46 167.54L431.41 167.26L431.14 167.34L354.38 190.41L358.54 155.03C367.68 142.7 369.77 136.35 366.52 130.78C366.06 129.99 365.18 129.59 363.92 129.59V129.6Z" fill="white"/>
<path d="M477.35 364.92C446.19 364.92 424.03 339.86 415.95 329.08C400.79 308.87 399.42 274.65 400.85 268.57C400.99 267.96 401.14 267.83 401.24 267.78C402.58 267.11 406.21 251.76 407.5 245.9C407.6 245.59 417.62 215.41 452.69 205.4C459.97 203.32 466.96 202.26 473.47 202.26C500.62 202.26 511.96 220.19 514.8 225.69C521.92 239.5 517.79 245.93 517.74 246L467.13 276.85L441.7 293.38L439.52 284.67L439.63 284.63C445.42 282.56 458.4 262.54 458.53 262.34L488.86 238.74C489.29 233.3 488.22 229.15 485.68 226.39C483.16 223.65 479.19 222.27 473.89 222.27C466.56 222.27 459.18 224.99 459.1 225.02C426.28 243.53 429.07 268.91 431.32 289.31L431.47 290.63C433.65 310.59 456.8 333.73 457.04 333.97L462.45 334.78C480.78 347.26 488.49 347.42 488.56 347.42C491.23 347.77 493.83 347.94 496.33 347.94C519.19 347.94 527.98 333.3 528.07 333.15L528.11 333.08L533.78 333.95V338.69C533.73 338.86 529.15 351.56 495.34 362.11C489.39 363.97 483.34 364.91 477.37 364.91L477.35 364.92Z" fill="white"/>
<path d="M473.45 202.38C495.92 202.38 509.05 214.84 514.67 225.74C521.83 239.65 517.62 245.92 517.62 245.92L467.04 276.74L441.75 293.18L439.64 284.75C445.54 282.64 458.61 262.41 458.61 262.41L488.96 238.81C490.05 225.37 481.92 222.15 473.86 222.15C466.42 222.15 459.03 224.91 459.03 224.91C425.39 243.88 429.11 270.43 431.32 290.66C433.53 310.89 456.92 334.07 456.92 334.07L462.4 334.91C480.94 347.55 488.53 347.55 488.53 347.55C491.29 347.91 493.87 348.07 496.3 348.07C519.51 348.07 528.15 333.22 528.15 333.22L533.63 334.06V338.7C533.63 338.7 529.42 351.34 495.28 362C489.11 363.93 483.12 364.79 477.35 364.79C451.19 364.79 429.51 346.95 416.05 329C399.61 307.08 399.61 268.73 401.3 267.89C402.99 267.05 407.62 245.92 407.62 245.92C407.62 245.92 417.31 215.62 452.72 205.51C460.37 203.32 467.27 202.38 473.46 202.38M473.45 202.13C466.94 202.13 459.94 203.19 452.64 205.27C434.29 210.51 422.96 221.26 416.69 229.36C409.89 238.13 407.4 245.77 407.38 245.85C405.59 253.99 402.33 267.09 401.18 267.67C400.98 267.77 400.85 268.03 400.72 268.55C400.02 271.52 400.09 281.75 402.04 293.24C403.8 303.58 407.62 318.2 415.84 329.16C423.93 339.95 446.13 365.05 477.34 365.05C483.33 365.05 489.39 364.11 495.35 362.24C529.22 351.67 533.69 339.3 533.87 338.78V338.74L533.88 338.7V333.85L533.67 333.82L528.19 332.98L528.02 332.95L527.93 333.1C527.84 333.25 519.08 347.83 496.3 347.83C493.81 347.83 491.2 347.66 488.56 347.31C488.45 347.31 480.77 347.14 462.54 334.71L462.49 334.68H462.43L457.03 333.84C455.74 332.54 433.68 310.06 431.56 290.64L431.41 289.32C429.17 268.96 426.37 243.61 459.14 225.14C459.18 225.13 466.54 222.42 473.85 222.42C479.11 222.42 483.05 223.79 485.55 226.5C488.06 229.22 489.12 233.33 488.71 238.7L458.45 262.23L458.42 262.26L458.4 262.3C458.27 262.5 445.31 282.48 439.56 284.54L439.35 284.62L439.4 284.84L441.51 293.27L441.6 293.61L441.89 293.42L467.18 276.98L517.75 246.17L517.8 246.14L517.83 246.09C518.01 245.83 522.04 239.54 514.89 225.66C512.05 220.15 500.67 202.16 473.45 202.16V202.13Z" fill="white"/>
<path d="M536.39 362.12L536.47 361.94C536.61 361.63 550.78 330.71 550.37 298.65L547.42 274.64L543.42 251.89L541.52 218.58L536.48 210.63L536.46 202.28L574.64 189.31V192.94L574.57 192.97C574.57 192.97 570.84 194.77 567.92 204.69V220.58L571.55 221.8L606.06 197.39L621.37 193.13L621.42 193.22C621.46 193.3 625.62 200.98 621.42 211.03L607.46 219.52C607.18 219.72 578.36 240.27 573.79 250.65C573.78 250.69 572.19 256.28 577.59 272.05C583.29 288.7 585.18 319.97 585.18 326.88V351.32L586.46 354.72L579.93 362.1H536.38L536.39 362.12Z" fill="white"/>
<path d="M574.52 189.5V192.87C574.52 192.87 570.78 194.56 567.8 204.67V220.69L571.57 221.95L606.13 197.5L621.3 193.29C621.3 193.29 625.51 200.88 621.3 210.99L607.39 219.42C607.39 219.42 578.31 240.07 573.67 250.61C573.67 250.61 571.98 256.09 577.46 272.1C582.94 288.12 585.05 318.88 585.05 326.89V351.34L586.31 354.71L579.87 362H536.58C536.58 362 550.91 331.11 550.49 298.66L547.54 274.64L543.54 251.88L541.64 218.58L536.58 210.57V202.38L574.51 189.5M574.77 189.15L574.44 189.26L536.51 202.14L536.34 202.2V210.64L536.38 210.7L541.4 218.65L543.3 251.88L547.3 274.67L550.25 298.68C550.66 330.68 536.51 361.58 536.36 361.89L536.2 362.25H580L580.07 362.17L586.51 354.88L586.61 354.77L586.56 354.63L585.31 351.3V326.9C585.31 319.99 583.41 288.69 577.71 272.03C572.34 256.32 573.9 250.74 573.92 250.69C578.47 240.36 607.25 219.84 607.54 219.63L621.43 211.21L621.5 211.17L621.53 211.09C625.74 200.98 621.56 193.25 621.52 193.17L621.42 193L621.23 193.05L606.06 197.26H606.02L605.98 197.3L571.52 221.67L568.04 220.5V204.7C570.93 194.89 574.57 193.11 574.61 193.09L574.76 193.02V192.86V189.49V189.14L574.77 189.15Z" fill="white"/>
<path d="M823.11 377.15C822.01 376.39 796.09 358.55 793.58 355.21C792.58 353.88 792.45 351.83 793.25 350.23C793.78 349.18 795.16 347.41 798.51 347.41C800.83 347.41 803.62 348.27 806.8 349.97C811.34 352.39 817.3 353.62 824.51 353.62C832.45 353.62 839.1 352.08 839.17 352.07C859.44 344.76 869.89 322.36 871.11 283.59C871.94 257.07 843.61 219.88 843.32 219.5C819.65 176.12 794.7 174.87 791.94 174.87C791.84 174.87 791.77 174.87 791.71 174.87L792.13 319.1L795.82 317.05L801.88 323.11L791.68 333.31C791.44 333.47 769.14 348.18 753.72 356.51C745.34 361.04 731.23 366.43 711.55 366.43C701.45 366.43 690.94 364.98 680.3 362.12C647.18 353.21 630.94 335.84 618.26 295.75C609.11 266.84 623.5 241.02 632.88 228.2C637.51 221.87 641.47 218.03 641.98 218.03C642.99 218.03 656.88 209.52 662.14 206.25C671.43 203.35 680.15 201.88 688.07 201.88C718.68 201.88 732.12 223.75 735.24 236.67C735.99 239.77 735.59 242.58 734.05 245.01C730.53 250.58 722.17 252.39 722.08 252.41C721.91 252.55 700 268.06 682.9 273.9C665.86 279.72 658.17 289.77 658.09 289.87L657.94 290.07L654.47 278.78L663.4 273.25L675.17 260.63L694.17 249.65L708.37 237.53C707.64 236.88 703.53 232.99 700.86 225.35C699.07 220.25 693.56 219.18 689.25 219.18C686.84 219.18 685 219.53 684.98 219.53C658.86 225.26 646.49 243.64 647.15 275.73C647.65 300.24 657.26 319.24 678.29 337.32C686.76 344.6 698.98 348.3 714.61 348.29C732.03 348.29 747.79 343.56 748.92 343.21L758.17 312.51V189.48C758.2 189.36 760.7 180.91 761.12 170.93C761.54 160.99 746.98 148.82 746.83 148.69L746.76 148.63L750.13 138.95C735.57 129.35 727.49 115.08 727.41 114.94L727.34 114.82L744.33 108.02C744.56 108.02 761.68 109.28 762.92 109.28C764.36 109.28 780.92 118.79 787.87 125.75C793.67 131.55 815.56 146.32 824.9 152.63C827.02 154.06 828.42 155.01 828.74 155.25C830.41 156.5 857.14 179.05 857.41 179.28C857.64 179.58 878.62 207.79 887.79 228.22C896.96 248.65 900.41 266.84 900.44 267.02L902.97 299.06C899.64 304.22 893.63 314.3 894.57 316.03C894.65 316.18 894.79 316.25 895 316.25C895.07 316.25 895.15 316.25 895.24 316.22C899.37 315.39 905.65 309.57 905.72 309.51L905.76 309.47L919.58 311.2L906.87 322.64C907.92 323.2 913.41 326.28 911.82 329.47C910.37 332.37 902.55 339.46 899.72 339.46C899.4 339.46 899.15 339.37 898.97 339.19C897.48 337.7 891.28 335.39 889.32 335.39C889.17 335.39 889.06 335.4 888.98 335.43C887.91 335.79 877.89 347.85 877.22 350.04C877.16 350.22 877.19 350.27 877.19 350.27H877.2C877.3 350.27 877.49 350.22 877.91 349.95C880.82 348.1 886.92 347.71 891.53 347.71C893.93 347.71 895.67 347.82 895.69 347.82H895.89L895.8 348C895.72 348.14 888.07 361.97 878.41 362.09H877.79C872.87 362.09 868.08 361.38 863.85 360.75C860.48 360.25 857.57 359.82 855.18 359.82C854.76 359.82 854.36 359.83 853.97 359.86C848.59 360.27 823.51 376.95 823.26 377.12L823.19 377.17L823.12 377.12L823.11 377.15Z" fill="white"/>
<path d="M744.37 108.15C744.37 108.15 761.65 109.41 762.91 109.41C764.17 109.41 780.61 118.68 787.78 125.85C794.95 133.02 826.98 154.09 828.66 155.35C830.35 156.61 857.32 179.37 857.32 179.37C857.32 179.37 878.39 207.61 887.67 228.26C896.95 248.91 900.31 267.04 900.31 267.04L902.84 299.07C902.84 299.07 891.57 316.38 894.99 316.38C895.07 316.38 895.16 316.38 895.25 316.35C899.46 315.51 905.79 309.61 905.79 309.61L919.28 311.3L906.64 322.68C906.64 322.68 913.38 326.05 911.7 329.42C910.17 332.48 902.41 339.34 899.71 339.34C899.43 339.34 899.21 339.27 899.05 339.11C897.49 337.55 891.24 335.27 889.31 335.27C889.15 335.27 889.03 335.29 888.93 335.32C887.76 335.71 875.51 350.41 877.21 350.41C877.36 350.41 877.6 350.3 877.97 350.07C880.92 348.19 887.28 347.85 891.52 347.85C893.94 347.85 895.67 347.96 895.67 347.96C895.67 347.96 888.08 361.87 878.39 361.99C878.18 361.99 877.98 361.99 877.77 361.99C868.99 361.99 860.61 359.71 855.17 359.71C854.75 359.71 854.34 359.72 853.95 359.75C848.47 360.17 823.18 377.03 823.18 377.03C823.18 377.03 796.21 358.49 793.68 355.11C791.84 352.65 792.9 347.51 798.51 347.51C800.6 347.51 803.31 348.22 806.74 350.05C812.06 352.89 818.66 353.71 824.51 353.71C832.55 353.71 839.19 352.16 839.19 352.16C864.9 342.89 870.38 310.43 871.22 283.56C872.06 256.69 843.4 219.39 843.4 219.39C819.83 176.17 795.15 174.71 791.92 174.71C791.68 174.71 791.56 174.71 791.56 174.71L791.98 319.27L795.77 317.16L801.67 323.06L791.55 333.18C791.55 333.18 769.21 347.93 753.62 356.36C743.46 361.85 729.19 366.27 711.51 366.27C702.05 366.27 691.6 365 680.29 361.96C647.84 353.23 631.4 336.97 618.33 295.67C605.26 254.37 640.67 218.12 641.93 218.12C643.19 218.12 662.16 206.32 662.16 206.32C671.96 203.26 680.54 201.97 688.02 201.97C720.77 201.97 732.67 226.72 735.07 236.67C738.02 248.89 722 252.26 722 252.26C722 252.26 700.08 267.85 682.8 273.76C665.52 279.66 657.93 289.78 657.93 289.78L654.56 278.82L663.41 273.34L675.21 260.7L694.18 249.74L708.51 237.52C708.51 237.52 703.87 233.73 700.92 225.3C699.08 220.03 693.28 219.04 689.19 219.04C686.74 219.04 684.9 219.4 684.9 219.4C650.97 226.84 646.55 255.22 646.97 275.73C647.39 296.23 654.13 316.76 678.16 337.41C688.05 345.91 701.8 348.41 714.56 348.41C732.78 348.41 748.97 343.31 748.97 343.31L758.24 312.54V189.47C758.24 189.47 760.77 181.04 761.19 170.93C761.61 160.82 746.86 148.59 746.86 148.59L750.23 138.9C735.48 129.21 727.47 114.88 727.47 114.88L744.33 108.14M744.33 107.9L744.28 107.92L727.42 114.66L727.16 114.77L727.3 115.02C727.38 115.16 735.45 129.41 749.98 139.02L746.67 148.53L746.61 148.69L746.74 148.8C746.89 148.92 761.39 161.06 760.98 170.93C760.56 180.9 758.07 189.33 758.04 189.41V189.45L758.03 189.49V312.52L748.81 343.12C747.26 343.59 731.73 348.17 714.6 348.17C699 348.17 686.81 344.49 678.37 337.23C657.36 319.17 647.77 300.2 647.27 275.73C646.61 243.71 658.96 225.36 685.01 219.65C685.02 219.65 686.85 219.3 689.25 219.3C693.52 219.3 698.98 220.36 700.74 225.39C703.31 232.74 707.21 236.64 708.18 237.53L694.07 249.57L675.14 260.5L675.11 260.52L675.08 260.55L663.3 273.17L654.48 278.63L654.32 278.73L654.38 278.91L657.75 289.87L657.89 290.34L658.18 289.95C658.26 289.85 665.93 279.83 682.93 274.02C699.69 268.3 721.05 253.3 722.15 252.52C722.93 252.35 730.71 250.52 734.15 245.07C735.71 242.6 736.12 239.76 735.36 236.63C733.99 230.95 730.06 222.41 723.15 215.43C714.14 206.35 702.34 201.74 688.07 201.74C680.13 201.74 671.41 203.21 662.13 206.1H662.1L662.07 206.13C654.51 210.84 642.91 217.85 641.97 217.89C641.38 217.89 637.34 221.87 632.77 228.11C628.23 234.3 622.05 244.25 618.36 256.47C614.26 270.06 614.18 283.28 618.13 295.77C624.74 316.67 632.29 331.12 641.89 341.23C651.31 351.15 663.14 357.63 680.25 362.23C690.9 365.09 701.43 366.55 711.54 366.55C731.25 366.55 745.39 361.15 753.77 356.61C769.2 348.27 791.5 333.57 791.72 333.42H791.74L791.76 333.39L801.88 323.27L802.06 323.09L801.88 322.91L795.98 317.01L795.85 316.88L795.69 316.97L792.27 318.87L791.85 174.97C791.85 174.97 791.92 174.97 791.96 174.97C794.72 174.97 819.6 176.22 843.22 219.52C843.53 219.92 871.84 257.09 871.01 283.56C869.8 322.27 859.37 344.63 839.14 351.93C839.1 351.93 832.46 353.47 824.54 353.47C817.35 353.47 811.41 352.25 806.89 349.84C803.69 348.13 800.88 347.27 798.54 347.27C795.12 347.27 793.71 349.08 793.17 350.16C792.35 351.81 792.49 353.91 793.51 355.27C796.03 358.64 821.97 376.48 823.07 377.24L823.21 377.34L823.35 377.25C823.6 377.08 848.65 360.42 854 360.01C854.37 359.98 854.77 359.97 855.2 359.97C857.58 359.97 860.49 360.4 863.85 360.9C868.08 361.53 872.87 362.24 877.8 362.24C878.01 362.24 878.22 362.24 878.43 362.24C888.16 362.12 895.61 348.65 895.93 348.08L896.12 347.74L895.73 347.71C895.73 347.71 893.97 347.6 891.56 347.6C886.94 347.6 880.81 347.99 877.87 349.86C877.59 350.04 877.43 350.11 877.34 350.14C877.59 348.36 888.18 335.87 889.05 335.56C889.1 335.54 889.19 335.53 889.35 335.53C891.29 335.53 897.43 337.82 898.91 339.3C899.11 339.5 899.39 339.6 899.75 339.6C902.68 339.6 910.46 332.53 911.96 329.54C913.54 326.39 908.48 323.37 907.11 322.63L919.49 311.49L919.9 311.12L919.36 311.05L905.87 309.36H905.75L905.66 309.43C905.6 309.49 899.34 315.29 895.24 316.11C895.16 316.13 895.09 316.13 895.03 316.13C894.82 316.13 894.75 316.05 894.71 315.97C893.86 314.41 899.26 305.09 903.09 299.21L903.14 299.14V299.06L900.6 267.03C900.56 266.82 897.11 248.61 887.93 228.17C878.75 207.73 857.77 179.52 857.56 179.23L857.54 179.21L857.52 179.19C856.42 178.26 830.52 156.41 828.85 155.16C828.53 154.92 827.12 153.97 825 152.54C815.66 146.24 793.79 131.47 787.99 125.68C781.02 118.71 764.39 109.17 762.95 109.17C761.71 109.17 744.6 107.92 744.42 107.91H744.36L744.33 107.9Z" fill="white"/>
<path d="M0.129883 466.37V387.05H919.47V466.37H0.129883ZM783.1 448.68V433.71H737.06V430.08H774.73V420.19H737.06V416.56H783.1V401.59H716.39V448.68H783.1ZM626.24 448.68V433.71H580.2V401.59H559.52V448.68H626.23H626.24ZM469.38 448.68V401.59H448.7V448.68H469.38ZM358.55 448.68V401.59H337.87V417.65H312.51V401.59H291.83V448.68H312.51V432.62H337.87V448.68H358.55ZM155.78 401.6C139.2 401.6 130.79 406.68 130.79 416.69V433.6C130.79 443.61 139.2 448.69 155.78 448.69H176.71C193.29 448.69 201.7 443.61 201.7 433.6V430.34H178.93V431.91C178.93 433.11 178.18 433.73 176.71 433.73H155.78C154.31 433.73 153.56 433.12 153.56 431.91V418.39C153.56 417.19 154.31 416.57 155.78 416.57H176.71C178.18 416.57 178.93 417.18 178.93 418.39V419.96H201.7V416.7C201.7 406.69 193.29 401.61 176.71 401.61H155.78V401.6Z" fill="white"/>
<path d="M919.34 387.18V466.25H0.25V387.18H919.34ZM716.26 448.81H783.22V433.6H737.18V430.22H774.85V420.08H737.18V416.7H783.22V401.48H716.26V448.82M559.4 448.81H626.36V433.6H580.32V401.48H559.39V448.82M448.58 448.81H469.51V401.47H448.58V448.81ZM312.64 417.53V401.47H291.71V448.81H312.64V432.75H337.75V448.81H358.68V401.47H337.75V417.53H312.64ZM155.78 448.81H176.71C193.45 448.81 201.82 443.74 201.82 433.6V430.22H178.8V431.91C178.8 433.04 178.1 433.6 176.71 433.6H155.78C154.38 433.6 153.69 433.04 153.69 431.91V418.39C153.69 417.26 154.39 416.7 155.78 416.7H176.71C178.1 416.7 178.8 417.26 178.8 418.39V420.08H201.82V416.7C201.82 406.56 193.45 401.48 176.71 401.48H155.78C139.04 401.48 130.67 406.55 130.67 416.7V433.61C130.67 443.75 139.04 448.82 155.78 448.82M919.59 386.93H0V466.5H919.59V386.93ZM716.51 401.72H782.97V416.44H736.93V420.32H774.6V429.96H736.93V433.84H782.97V448.55H716.51V401.71V401.72ZM559.65 401.72H580.08V433.84H626.12V448.55H559.66V401.71L559.65 401.72ZM448.83 401.72H469.26V448.56H448.83V401.72ZM338 401.72H358.43V448.56H338V432.5H312.39V448.56H291.96V401.72H312.39V417.78H338V401.72ZM155.78 448.56C139.28 448.56 130.92 443.53 130.92 433.6V416.69C130.92 406.76 139.28 401.72 155.78 401.72H176.71C193.21 401.72 201.57 406.75 201.57 416.69V419.82H179.05V418.38C179.05 417.49 178.64 416.44 176.71 416.44H155.78C153.84 416.44 153.44 417.5 153.44 418.38V431.9C153.44 432.79 153.85 433.84 155.78 433.84H176.71C178.65 433.84 179.05 432.78 179.05 431.9V430.46H201.57V433.59C201.57 443.52 193.21 448.55 176.71 448.55H155.78V448.56Z" fill="white"/>
<path d="M405.58 53.08H0.180176V69.92H405.58V53.08Z" fill="white"/>
<path d="M405.46 53.21V69.8H0.310059V53.21H405.46ZM405.71 52.96H0.0600586V70.05H405.71V52.96Z" fill="white"/>
<path d="M919.46 52.02H514.06V68.86H919.46V52.02Z" fill="white"/>
<path d="M919.34 52.15V68.74H514.19V52.15H919.34ZM919.59 51.9H513.94V68.99H919.59V51.9Z" fill="white"/>
<path d="M425.79 112.64C424.1 112.02 422.97 110.4 422.97 108.61V86.59C422.88 86.46 420.51 82.05 420.08 79.67C419.95 78.94 419.89 78.37 419.83 77.86C419.71 76.72 419.64 76.09 418.92 75.29L418.71 75.06C417.7 73.97 416.75 72.94 417.37 69.44C417.29 69.37 414.87 65.64 414.77 62.73C414.72 61.51 414.89 59.48 415.06 57.33C415.3 54.35 415.57 50.97 415.32 49.2C414.89 46.22 416.59 38.7 419.19 37.68H419.25L419.4 37.76C419.79 38.24 419.3 40.89 418.82 43.03C417.83 47.45 419.5 52.84 420.31 55.43C420.47 55.94 420.6 56.35 420.67 56.63C420.88 57.45 421.04 59.52 420.67 64.69C420.59 65.76 421.2 66.85 421.78 67.9C422 68.3 422.22 68.69 422.39 69.07C423.05 70.49 425.86 73.91 426.76 74.21C427.76 74.54 428.55 75.73 429.01 77.55C429.43 79.22 429.93 80.49 432.25 80.49C434.16 80.49 435.5 81.69 436.69 82.74C437.02 83.03 437.33 83.31 437.64 83.55C437.8 83.67 438.01 83.87 438.27 84.12C440.13 85.89 445.07 90.58 456.61 90.58C457.65 90.58 458.73 90.54 459.83 90.47C459.87 90.47 460.03 90.5 460.33 90.5C461.69 90.5 466.71 89.88 474.11 81.83C474.08 81.78 474.21 78.81 475.85 77.06C475.83 77.05 476.99 69.1 475.72 65.92C474.35 62.51 471.68 60.47 468.57 60.47C466.92 60.47 466.22 60.9 465.92 61.26C465.59 61.65 465.66 62.05 465.66 62.07C465.64 62.17 464.51 64.92 461.55 65.46C461.45 65.68 457.13 72.07 454.61 72.51C453.46 72.71 452.49 73.02 451.63 73.3C450.75 73.58 449.98 73.83 449.36 73.83C449.29 73.83 449.22 73.83 449.16 73.83H449.04C447.81 73.71 444.94 73.45 442.92 71.96C442.16 71.4 441.28 71.12 440.24 71.12C439.7 71.12 439.2 71.19 438.76 71.25C438.44 71.3 438.16 71.33 437.95 71.33C437.89 71.33 437.83 71.33 437.78 71.33L437.53 71.3C436.73 71.22 435.82 71.13 435.82 69.25C435.82 67.37 434.84 64.28 433.26 62.82C432.8 62.4 432.33 62.1 431.88 61.82C430.75 61.11 429.77 60.5 429.53 58.2C429.2 54.99 429.01 51.7 430.29 46.77C431.17 43.38 432.87 39.97 433.88 37.93C434.34 37 434.7 36.27 434.73 36.05C434.84 35.27 439.84 30.93 440.41 30.44L440.81 27.75L440.86 27.72C442.49 26.7 450.68 21.63 451.23 21.63C451.29 21.63 451.61 21.63 452.12 21.61C454.27 21.56 459.97 21.42 464.88 21.42C469.23 21.42 471.9 21.53 472.83 21.74C475.16 22.28 479.69 23.72 481.15 24.19C480.26 23.28 477.78 20.88 475.47 20.02C472.6 18.96 466.54 15.78 466.35 15.68C466.35 15.69 465.76 15.7 464.86 15.7C461.6 15.7 453.8 15.64 451.84 15.04C451.29 14.87 450.51 14.78 449.59 14.78C446.51 14.78 441.41 15.81 436.98 18.71L446.84 19.04L434.15 25.44L430.5 29.1L422.99 44.59V27.14C422.99 27.14 423.14 27.16 423.15 27.16C423.34 27.16 423.65 27.12 423.84 26.81C424.13 26.36 424.21 25.28 423 22.71V3.92C422.99 1.83 424.69 0.130005 426.78 0.130005H479.99L480.03 0.180005C480.03 0.180005 480.85 1.22 482.18 1.22C482.97 1.22 483.79 0.860005 484.62 0.160005L493.16 0.130005C495.26 0.130005 496.97 1.84 496.97 3.94V27.87L497.97 30.57V33.79L500.72 40.36V43.33C500.72 43.33 503.35 47.13 504.92 52.98V63.45L503.19 71.96L501.64 60.98L500.06 57.55L499.9 55.34L499.34 54.38L499.47 49.85C499.11 49.53 496.65 47.33 495.58 45.22C495.57 45.2 494.06 42.54 492.59 41.59C491.96 41.18 491.54 40.38 491.06 39.45C490.36 38.09 489.56 36.55 487.84 35.85C486.69 35.38 485.92 35.34 485.25 35.34H484.68C483.8 35.34 482.87 35.27 481.32 34.32C480.24 33.67 479.65 32.96 479.07 32.27C477.98 30.98 476.96 29.76 472.9 28.92C471.14 28.56 468.92 28.37 466.3 28.37C461.4 28.37 456.73 29.02 456.68 29.03L443.49 35.31C443.49 35.31 438.06 41.16 436.32 49.73C436.53 49.78 436.93 49.92 437.3 50.37C438.02 51.26 438.2 52.84 437.82 55.06C437.86 55.1 442.96 66.44 449.73 66.44C449.94 66.44 450.15 66.43 450.37 66.41C450.42 66.41 454.05 66.26 456.79 63.09C456.89 63.04 461.47 61.64 462.3 59.87C462.33 59.8 465.49 53.14 466.61 52.86C466.83 52.8 467.44 52.75 468.29 52.75C469.84 52.75 475.11 52.96 477.68 55.72C480.88 59.15 482.75 64.83 482.06 68.98C482.42 69.24 484.02 70.57 483.12 72.77C482.18 75.06 482.04 77.25 482.04 78.36C482.04 79.34 480.96 81.99 480.05 82.89C479.68 83.26 479.63 83.84 479.58 84.4C479.52 85.07 479.46 85.76 478.8 85.96C477.68 86.3 473.95 88.57 473.55 89.16C473.47 89.27 473.39 89.47 473.3 89.7C472.89 90.71 472.13 92.6 469.35 93.23C468.06 93.52 466.39 94.04 464.77 94.54C462.4 95.28 460.16 95.97 459.12 95.97C458.98 95.97 458.87 95.96 458.77 95.93C458.65 95.9 458.52 95.88 458.39 95.88C457.97 95.88 457.53 96.04 457.06 96.21C456.48 96.42 455.82 96.66 455.04 96.66C454.77 96.66 454.49 96.63 454.22 96.57C453.67 96.45 452.82 96.35 451.83 96.22C449.1 95.87 445.35 95.4 443.98 94.27C442.17 92.78 440.55 91.91 440.53 91.9L437.47 91.6C437.5 91.99 437.68 93.1 438.61 93.86C439.92 94.93 452.28 101.97 458.7 102.18C458.86 102.18 459.03 102.18 459.2 102.18C465.71 102.18 475.36 98.21 475.45 98.17C475.5 98.06 478.14 94.36 487.83 92.42C487.82 92.42 488.77 91.89 489.19 91.58C489.63 91.25 490.74 90.02 491.34 89.32C491.99 88.57 496.05 84.4 496.22 84.22L496.43 84V108.41C496.43 110.35 495.26 112.07 493.45 112.78C493.45 112.78 482.58 117.06 482.57 117.06C482.48 117.06 482.19 116.98 481.7 116.98C480.79 116.98 478.94 117.27 476.87 119.2L460.52 125.31L425.77 112.63L425.79 112.64Z" fill="white"/>
<path d="M493.13 0.25C495.17 0.25 496.82 1.9 496.82 3.94V27.87L497.83 30.62V33.8L500.58 40.42V43.35C500.58 43.35 503.18 47.11 504.77 53.04V63.48L503.18 71.25L501.73 60.99L500.14 57.52L500 55.35L499.42 54.34L499.56 49.81C499.56 49.81 496.81 47.45 495.66 45.18C495.66 45.18 494.14 42.48 492.62 41.5C491.1 40.52 490.78 36.95 487.85 35.75C486.7 35.28 485.92 35.23 485.21 35.23C485.02 35.23 484.83 35.23 484.64 35.23C483.76 35.23 482.86 35.15 481.35 34.23C478.31 32.39 479.18 30.11 472.89 28.81C470.9 28.4 468.55 28.26 466.26 28.26C461.3 28.26 456.63 28.92 456.63 28.92L443.4 35.21C443.4 35.21 437.87 41.06 436.14 49.85C436.14 49.85 438.53 49.96 437.66 55.05C437.66 55.05 442.76 66.58 449.7 66.58C449.92 66.58 450.13 66.57 450.35 66.55C450.35 66.55 454.04 66.44 456.86 63.19C456.86 63.19 461.52 61.78 462.39 59.94C463.26 58.1 465.75 53.22 466.62 53C466.84 52.95 467.44 52.89 468.27 52.89C470.76 52.89 475.29 53.38 477.57 55.82C480.61 59.07 482.67 64.71 481.91 69.05C481.91 69.05 483.97 70.35 482.99 72.74C482.01 75.13 481.91 77.4 481.91 78.38C481.91 79.36 480.83 81.96 479.96 82.83C479.09 83.7 479.85 85.54 478.77 85.87C477.69 86.2 473.89 88.47 473.46 89.12C473.03 89.77 472.7 92.37 469.34 93.13C466.2 93.84 460.89 95.87 459.14 95.87C459.02 95.87 458.91 95.86 458.83 95.84C458.69 95.81 458.56 95.79 458.42 95.79C457.44 95.79 456.47 96.57 455.07 96.57C454.82 96.57 454.56 96.55 454.28 96.49C452.22 96.06 445.93 95.73 444.09 94.21C442.25 92.69 440.62 91.82 440.62 91.82L437.37 91.49C437.37 91.49 437.37 93.01 438.56 93.98C439.75 94.96 452.11 102.11 458.73 102.33C458.9 102.33 459.06 102.33 459.23 102.33C465.84 102.33 475.53 98.31 475.53 98.31C475.53 98.31 478.13 94.52 487.89 92.56C487.89 92.56 488.87 92.02 489.3 91.69C489.73 91.36 490.82 90.17 491.47 89.41C492.12 88.65 496.35 84.31 496.35 84.31V108.41C496.35 110.29 495.2 111.98 493.45 112.67L482.58 116.95C482.58 116.95 482.28 116.86 481.75 116.86C480.74 116.86 478.9 117.19 476.83 119.12L460.57 125.19L425.87 112.53C424.23 111.93 423.13 110.37 423.13 108.62V86.6C423.13 86.6 420.67 82.05 420.24 79.66C419.81 77.27 420.13 76.41 419.05 75.21C417.97 74.01 416.88 73.15 417.53 69.46C417.53 69.46 415.04 65.63 414.93 62.72C414.82 59.81 415.91 52.22 415.47 49.19C415.04 46.15 416.77 38.78 419.26 37.81C419.31 37.81 419.86 37.91 418.72 43.01C417.53 48.32 420.13 54.94 420.56 56.67C420.99 58.4 420.67 63.18 420.56 64.69C420.45 66.21 421.64 67.73 422.29 69.14C422.94 70.55 425.76 74.02 426.74 74.34C427.72 74.67 428.47 75.86 428.91 77.59C429.34 79.32 429.89 80.63 432.27 80.63C434.65 80.63 436.17 82.58 437.58 83.67C438.89 84.68 443.46 90.72 456.63 90.72C457.65 90.72 458.73 90.68 459.86 90.61C459.86 90.61 460.03 90.64 460.36 90.64C461.89 90.64 466.87 89.93 474.23 81.93C474.23 81.93 474.34 78.89 475.96 77.16C475.96 77.16 477.15 69.14 475.85 65.88C474.55 62.63 471.95 60.35 468.59 60.35C465.23 60.35 465.55 62.09 465.55 62.09C465.55 62.09 464.47 64.8 461.54 65.34C461.54 65.34 457.09 71.95 454.6 72.39C452.24 72.8 450.55 73.7 449.37 73.7C449.3 73.7 449.24 73.7 449.18 73.7C447.99 73.59 445.06 73.37 443 71.86C442.08 71.18 441.11 71 440.24 71C439.28 71 438.45 71.22 437.95 71.22C437.89 71.22 437.84 71.22 437.79 71.22C436.92 71.11 435.95 71.22 435.95 69.27C435.95 67.32 434.97 64.25 433.35 62.75C431.73 61.25 429.99 61.36 429.66 58.21C429.33 55.07 429.12 51.81 430.42 46.83C431.72 41.84 434.76 36.86 434.87 36.1C434.98 35.34 440.51 30.57 440.51 30.57L440.94 27.86C440.94 27.86 450.7 21.79 451.24 21.79C451.58 21.79 458.82 21.58 464.89 21.58C468.53 21.58 471.76 21.66 472.81 21.9C475.63 22.55 481.59 24.5 481.59 24.5C481.59 24.5 478.45 21.03 475.52 19.95C472.59 18.87 466.41 15.61 466.41 15.61C466.41 15.61 465.82 15.61 464.86 15.61C461.53 15.61 453.82 15.54 451.88 14.95C451.32 14.78 450.54 14.69 449.59 14.69C446.3 14.69 441.05 15.82 436.59 18.86L446.35 19.19L434.1 25.37L430.41 29.06L423.11 44.09V27.32C423.11 27.32 423.14 27.32 423.18 27.32C423.55 27.32 425.18 27.09 423.11 22.69V3.92C423.11 1.89 424.75 0.25 426.78 0.25H479.93C479.93 0.25 480.77 1.34 482.18 1.34C482.89 1.34 483.74 1.07 484.7 0.25H493.16M493.13 0H484.58L484.51 0.06C483.7 0.75 482.91 1.09 482.15 1.09C480.88 1.09 480.11 0.11 480.1 0.1L480.02 0H479.9H426.75C424.59 0 422.83 1.76 422.83 3.92V22.72L422.85 22.77C424.1 25.42 423.92 26.4 423.69 26.75C423.53 27 423.28 27.04 423.14 27.04L422.86 27L422.82 27.28V45.14L423.29 44.16L430.57 29.16L434.2 25.53L446.42 19.37L447.29 18.93L446.31 18.9L437.34 18.6C441.67 15.88 446.56 14.91 449.54 14.91C450.45 14.91 451.21 15 451.75 15.16C453.73 15.76 461.54 15.83 464.81 15.83C465.58 15.83 466.12 15.83 466.3 15.83C466.93 16.16 472.62 19.13 475.38 20.15C477.41 20.9 479.58 22.86 480.66 23.92C478.85 23.34 474.93 22.11 472.81 21.62C471.87 21.4 469.19 21.29 464.83 21.29C459.92 21.29 454.21 21.43 452.06 21.48C451.55 21.49 451.24 21.5 451.17 21.5C450.62 21.5 443.69 25.77 440.74 27.61L440.64 27.67L440.62 27.78L440.2 30.4C438.81 31.6 434.66 35.25 434.55 36.02C434.52 36.23 434.14 36.98 433.71 37.86C432.7 39.9 431 43.32 430.11 46.72C428.82 51.67 429.01 54.97 429.34 58.19C429.58 60.55 430.63 61.2 431.74 61.9C432.19 62.18 432.65 62.47 433.1 62.89C434.66 64.33 435.62 67.3 435.62 69.23C435.62 71.16 436.63 71.32 437.44 71.4C437.52 71.4 437.6 71.42 437.68 71.43C437.74 71.43 437.8 71.44 437.87 71.44C438.1 71.44 438.38 71.4 438.7 71.35C439.13 71.29 439.62 71.22 440.16 71.22C441.18 71.22 442.03 71.49 442.77 72.03C444.82 73.54 447.72 73.8 448.95 73.91H449.07C449.14 73.93 449.21 73.93 449.28 73.93C449.93 73.93 450.7 73.68 451.59 73.4C452.45 73.13 453.42 72.82 454.55 72.62C456.99 72.2 461.04 66.37 461.6 65.55C464.55 64.95 465.65 62.28 465.69 62.17L465.72 62.1V62.03C465.72 62.03 465.65 61.67 465.95 61.32C466.24 60.98 466.91 60.58 468.5 60.58C471.56 60.58 474.19 62.59 475.53 65.95C476.72 68.94 475.75 76.2 475.63 77.02C474.15 78.65 473.92 81.26 473.89 81.8C466.55 89.74 461.61 90.36 460.26 90.36C459.97 90.36 459.81 90.33 459.81 90.33H459.78H459.75C458.66 90.41 457.58 90.44 456.54 90.44C445.05 90.44 440.14 85.78 438.29 84.02C438.02 83.77 437.81 83.57 437.65 83.44C437.35 83.21 437.04 82.93 436.71 82.64C435.51 81.57 434.14 80.35 432.19 80.35C429.96 80.35 429.49 79.17 429.07 77.5C428.6 75.63 427.78 74.42 426.74 74.07C425.86 73.78 423.09 70.4 422.44 69C422.26 68.61 422.04 68.21 421.82 67.82C421.25 66.78 420.65 65.71 420.73 64.68C421.02 60.57 421.02 57.77 420.73 56.58C420.66 56.29 420.53 55.89 420.37 55.37C419.57 52.79 417.9 47.42 418.89 43.03C419.95 38.29 419.57 37.81 419.45 37.65C419.38 37.57 419.29 37.52 419.19 37.52H419.16L419.09 37.54C416.44 38.58 414.71 46.18 415.14 49.19C415.39 50.94 415.12 54.31 414.88 57.29C414.71 59.44 414.55 61.48 414.59 62.7C414.69 65.44 416.8 68.89 417.18 69.48C416.58 72.97 417.55 74.01 418.57 75.11L418.78 75.34C419.48 76.11 419.55 76.73 419.66 77.84C419.71 78.35 419.78 78.93 419.91 79.66C420.32 81.94 422.5 86.06 422.8 86.62V108.58C422.8 110.43 423.97 112.09 425.7 112.73L460.4 125.39L460.49 125.42L460.58 125.39L476.84 119.32L476.89 119.3L476.93 119.27C478.98 117.36 480.78 117.08 481.68 117.08C482.16 117.08 482.44 117.16 482.44 117.16L482.52 117.18L482.6 117.15L493.47 112.87C495.33 112.14 496.53 110.38 496.53 108.38V83.67L496.1 84.11C495.93 84.29 491.86 88.46 491.21 89.22C490.46 90.09 489.46 91.17 489.08 91.46C488.71 91.74 487.91 92.19 487.73 92.29C478.58 94.13 475.69 97.54 475.3 98.07C474.44 98.42 465.37 102.04 459.16 102.04C458.99 102.04 458.83 102.04 458.67 102.04C452.27 101.83 439.96 94.81 438.65 93.75C437.86 93.1 437.64 92.18 437.57 91.73L440.47 92.02C440.74 92.17 442.22 93.01 443.86 94.35C445.26 95.51 449.03 95.98 451.77 96.33C452.76 96.46 453.61 96.56 454.15 96.68C454.43 96.74 454.71 96.77 454.99 96.77C455.8 96.77 456.46 96.53 457.05 96.31C457.53 96.14 457.94 95.99 458.34 95.99C458.46 95.99 458.57 96 458.69 96.03C458.8 96.06 458.92 96.07 459.07 96.07C460.14 96.07 462.38 95.37 464.76 94.63C466.37 94.13 468.04 93.61 469.33 93.32C472.18 92.68 472.95 90.75 473.37 89.72C473.46 89.5 473.54 89.31 473.61 89.2C473.98 88.64 477.71 86.37 478.79 86.05C479.53 85.83 479.6 85.06 479.66 84.39C479.71 83.85 479.75 83.29 480.09 82.96C481.03 82.02 482.11 79.36 482.11 78.34C482.11 77.24 482.25 75.06 483.18 72.8C484.07 70.63 482.61 69.27 482.14 68.91C482.8 64.73 480.92 59.05 477.71 55.62C475.11 52.83 469.79 52.61 468.23 52.61C467.47 52.61 466.8 52.66 466.52 52.73C465.33 53.03 462.16 59.74 462.13 59.81C461.32 61.53 456.8 62.92 456.75 62.93L456.68 62.95L456.63 63C453.91 66.13 450.34 66.27 450.31 66.27C450.08 66.29 449.88 66.3 449.67 66.3C443.25 66.3 438.33 55.93 437.89 54.99C438.26 52.78 438.07 51.19 437.33 50.28C437.01 49.88 436.65 49.7 436.4 49.63C438.08 41.49 443.08 35.87 443.52 35.39L456.67 29.14C457.12 29.08 461.58 28.49 466.23 28.49C468.84 28.49 471.06 28.67 472.81 29.04C476.82 29.87 477.83 31.08 478.91 32.35C479.49 33.05 480.1 33.76 481.19 34.43C482.77 35.39 483.71 35.47 484.61 35.47H484.89H485.18C485.85 35.47 486.59 35.51 487.73 35.97C489.41 36.65 490.19 38.17 490.89 39.51C491.38 40.45 491.8 41.27 492.46 41.69C493.91 42.62 495.4 45.25 495.41 45.28C496.47 47.35 498.78 49.46 499.28 49.89L499.14 54.3V54.37L499.17 54.43L499.72 55.39L499.86 57.5V57.55L499.88 57.59L501.46 61.03L502.9 71.26L503.1 72.69L503.39 71.27L504.98 63.5V63.48V63.45V52.94C503.5 47.46 501.14 43.77 500.79 43.24V40.34L500.77 40.29L498.04 33.72V30.54L498.02 30.5L497.02 27.8V3.94C497.02 1.77 495.25 0 493.08 0H493.13Z" fill="white"/>
<path d="M488.71 76.17C488.72 76.06 490.01 64.79 489.79 63.74C489.62 62.91 486.04 53.9 479.22 49.62C476.25 47.75 473.14 46.8 469.99 46.8C467.23 46.8 465.33 47.55 464.81 47.78C462.92 48.62 459.78 52.17 459.22 52.94C459.06 53.17 459.01 53.85 458.96 54.58C458.85 56.14 458.72 58.09 457.38 58.09H454.34C454.34 58.09 452.97 59.31 451.96 59.31C451.87 59.31 451.79 59.31 451.71 59.28C450.44 59 449.11 58.1 447.63 56.53C447.19 56.06 446.75 55.63 446.33 55.23C445.08 54.03 444.1 53.07 444.02 51.9C443.99 51.42 443.82 51 443.53 50.65C442.95 49.97 442.71 49.12 442.87 48.31C443.34 45.87 444.5 41.78 447.02 41.78C447.24 41.78 447.47 41.81 447.69 41.87L455.77 34.87C455.9 34.83 462.63 33.96 467.29 33.96C468.67 33.96 469.76 34.04 470.51 34.19C472.63 34.61 474.06 35.46 475.45 36.28C476.57 36.94 477.63 37.57 478.97 37.93C482.01 38.75 484.75 41.9 484.78 41.93C485.05 42.2 491.43 48.72 492.61 53.04C493.79 57.35 493.38 64.61 493.37 64.68C493.37 64.73 493.86 71.72 488.88 76.26L488.63 76.49L488.67 76.16L488.71 76.17Z" fill="white"/>
<path d="M467.31 34.11C468.58 34.11 469.7 34.17 470.51 34.33C474.3 35.09 475.93 37.25 478.97 38.07C482.01 38.89 484.72 42.03 484.72 42.03C484.72 42.03 491.33 48.75 492.53 53.09C493.72 57.43 493.29 64.69 493.29 64.69C493.29 64.69 493.83 71.63 488.84 76.18C488.84 76.18 490.14 64.8 489.92 63.71C489.7 62.62 486.02 53.74 479.29 49.51C475.82 47.33 472.58 46.68 469.99 46.68C467.56 46.68 465.71 47.25 464.76 47.67C462.81 48.54 459.66 52.12 459.12 52.87C458.58 53.63 459.23 57.97 457.39 57.97H454.35C454.35 57.97 452.95 59.19 451.97 59.19C451.89 59.19 451.82 59.19 451.75 59.17C450.77 58.95 449.47 58.3 447.74 56.46C446.01 54.62 444.27 53.42 444.16 51.91C444.12 51.32 443.9 50.89 443.64 50.59C443.11 49.97 442.85 49.16 443 48.36C443.45 46.02 444.59 41.94 447.03 41.94C447.25 41.94 447.49 41.97 447.74 42.05L455.87 35C455.87 35 462.6 34.13 467.31 34.13M467.31 33.86C462.64 33.86 455.9 34.73 455.84 34.74H455.77L455.71 34.8L447.68 41.76C447.46 41.71 447.25 41.68 447.04 41.68C444.43 41.68 443.24 45.83 442.76 48.31C442.6 49.15 442.85 50.05 443.45 50.75C443.72 51.07 443.88 51.47 443.91 51.92C444 53.15 445 54.11 446.26 55.33C446.68 55.74 447.11 56.16 447.55 56.62C449.04 58.21 450.4 59.12 451.69 59.4C451.78 59.42 451.87 59.43 451.96 59.43C452.9 59.43 454.12 58.47 454.44 58.21H457.38C458.83 58.21 458.97 56.2 459.08 54.59C459.13 53.91 459.18 53.21 459.32 53.01C459.87 52.24 462.99 48.72 464.86 47.89C465.37 47.66 467.25 46.92 469.99 46.92C473.12 46.92 476.21 47.86 479.16 49.72C485.94 53.98 489.51 62.93 489.67 63.76C489.84 64.62 488.94 73 488.58 76.15L488.5 76.81L488.99 76.36C494.01 71.78 493.52 64.73 493.52 64.66C493.54 64.4 493.94 57.34 492.75 53.01C491.55 48.66 485.15 42.12 484.88 41.84C484.78 41.72 482.1 38.64 479.02 37.81C477.69 37.45 476.64 36.83 475.53 36.18C474.13 35.35 472.68 34.5 470.55 34.07C469.79 33.92 468.7 33.84 467.31 33.84V33.86Z" fill="white"/>
<path d="M46.69 528.8C46.69 529.11 46.59 529.35 46.38 529.52C46.17 529.69 45.88 529.78 45.51 529.78H34.42C33.64 529.78 33.12 529.4 32.88 528.64L31.28 523.57H16.37L14.77 528.64C14.53 529.4 14.02 529.78 13.23 529.78H2.21C1.82 529.78 1.52 529.69 1.31 529.5C1.1 529.32 1 529.07 1 528.76C1 528.59 1.03 528.4 1.1 528.2L17.62 484.83C17.88 484.11 18.4 483.75 19.19 483.75H28.61C29.4 483.75 29.92 484.11 30.18 484.83L46.56 528.2C46.65 528.4 46.69 528.59 46.69 528.79V528.8ZM27.59 512.38L24.48 502.31L23.79 499.89L23.23 502.31L20.12 512.38H27.58H27.59Z" fill="white"/>
<path d="M116.8 529.42C116.56 529.66 116.22 529.78 115.79 529.78H87.3099C86.3899 529.78 85.9399 529.32 85.9399 528.41V485.21C85.9399 484.29 86.3999 483.84 87.3099 483.84H98.0699C98.9899 483.84 99.4399 484.3 99.4399 485.21V516.87H115.79C116.23 516.87 116.56 516.99 116.8 517.23C117.04 517.47 117.16 517.81 117.16 518.24V528.41C117.16 528.85 117.04 529.18 116.8 529.42Z" fill="white"/>
<path d="M171.35 529.78H160.59C159.67 529.78 159.22 529.32 159.22 528.41V496.39H148.95C148.51 496.39 148.18 496.27 147.94 496.03C147.7 495.79 147.58 495.45 147.58 495.02V485.21C147.58 484.77 147.7 484.44 147.94 484.2C148.18 483.96 148.52 483.84 148.95 483.84H183.03C183.47 483.84 183.8 483.96 184.04 484.2C184.28 484.44 184.4 484.78 184.4 485.21V495.02C184.4 495.46 184.28 495.79 184.04 496.03C183.8 496.27 183.46 496.39 183.03 496.39H172.73V528.41C172.73 529.33 172.27 529.78 171.36 529.78H171.35Z" fill="white"/>
<path d="M257.59 529.42C257.35 529.66 257.01 529.78 256.58 529.78H225.09C224.17 529.78 223.72 529.32 223.72 528.41V485.21C223.72 484.29 224.18 483.84 225.09 483.84H256.09C256.53 483.84 256.86 483.96 257.1 484.2C257.34 484.44 257.46 484.78 257.46 485.21V494.63C257.46 495.52 257 495.97 256.09 495.97H237.22V501.04H251.45C251.89 501.04 252.22 501.16 252.46 501.4C252.7 501.64 252.82 501.98 252.82 502.41V511.01C252.82 511.93 252.36 512.38 251.45 512.38H237.22V517.65H256.58C257.5 517.65 257.95 518.1 257.95 518.99V528.41C257.95 528.85 257.83 529.18 257.59 529.42Z" fill="white"/>
<path d="M298.07 528.4V485.2C298.07 484.28 298.53 483.83 299.44 483.83H318.44C321.62 483.83 324.46 484.51 326.94 485.86C329.43 487.21 331.36 489.09 332.74 491.48C334.12 493.88 334.82 496.61 334.82 499.69C334.82 505.1 332.68 509.24 328.41 512.12L336.59 528.18C336.72 528.44 336.79 528.67 336.79 528.87C336.79 529.15 336.69 529.38 336.48 529.54C336.27 529.7 335.97 529.79 335.58 529.79H323.28C322.52 529.79 321.98 529.45 321.68 528.78L315.47 515.6H311.58V528.42C311.58 529.34 311.12 529.79 310.21 529.79H299.45C298.53 529.79 298.08 529.33 298.08 528.42L298.07 528.4ZM320 502.86C320.75 502.01 321.13 500.96 321.13 499.72C321.13 498.39 320.75 497.39 319.98 496.71C319.21 496.03 318.33 495.7 317.33 495.7H311.57V504.14H317.19C318.3 504.14 319.23 503.72 319.99 502.86H320Z" fill="white"/>
<path d="M410.47 529.42C410.23 529.66 409.89 529.78 409.46 529.78H377.97C377.05 529.78 376.6 529.32 376.6 528.41V485.21C376.6 484.29 377.06 483.84 377.97 483.84H408.97C409.41 483.84 409.74 483.96 409.98 484.2C410.22 484.44 410.34 484.78 410.34 485.21V494.63C410.34 495.52 409.88 495.97 408.97 495.97H390.1V501.04H404.33C404.77 501.04 405.1 501.16 405.34 501.4C405.58 501.64 405.7 501.98 405.7 502.41V511.01C405.7 511.93 405.24 512.38 404.33 512.38H390.1V517.65H409.46C410.38 517.65 410.83 518.1 410.83 518.99V528.41C410.83 528.85 410.71 529.18 410.47 529.42Z" fill="white"/>
<path d="M450.96 528.4V485.2C450.96 484.28 451.42 483.83 452.33 483.83H468.68C473.15 483.83 477.24 484.83 480.96 486.82C484.68 488.82 487.62 491.56 489.77 495.06C491.92 498.56 493.01 502.46 493.01 506.75C493.01 511.04 491.94 514.98 489.79 518.49C487.64 522 484.71 524.76 481.01 526.76C477.3 528.77 473.23 529.77 468.78 529.77H452.33C451.41 529.77 450.96 529.31 450.96 528.4ZM474.47 515.59C476 514.76 477.18 513.58 478.03 512.06C478.88 510.53 479.31 508.77 479.31 506.76C479.31 504.75 478.89 503.06 478.03 501.54C477.18 500.02 475.99 498.85 474.47 498.02C472.94 497.19 471.2 496.78 469.24 496.78H464.46V516.83H469.24C471.2 516.83 472.95 516.42 474.47 515.59Z" fill="white"/>
<path d="M552.44 529.78H541.68C540.76 529.78 540.31 529.32 540.31 528.41V496.39H530.04C529.6 496.39 529.27 496.27 529.03 496.03C528.79 495.79 528.67 495.45 528.67 495.02V485.21C528.67 484.77 528.79 484.44 529.03 484.2C529.27 483.96 529.61 483.84 530.04 483.84H564.12C564.56 483.84 564.89 483.96 565.13 484.2C565.37 484.44 565.49 484.78 565.49 485.21V495.02C565.49 495.46 565.37 495.79 565.13 496.03C564.89 496.27 564.55 496.39 564.12 496.39H553.82V528.41C553.82 529.33 553.36 529.78 552.45 529.78H552.44Z" fill="white"/>
<path d="M612.94 527.41C609.28 525.26 606.39 522.36 604.29 518.71C602.19 515.06 601.13 511.05 601.13 506.69C601.13 502.33 602.18 498.33 604.29 494.7C606.39 491.07 609.28 488.2 612.94 486.08C616.6 483.97 620.66 482.91 625.11 482.91C627.79 482.91 630.36 483.31 632.83 484.12C635.3 484.93 637.53 486.07 639.53 487.55C639.92 487.88 640.12 488.23 640.12 488.6C640.12 488.91 640.01 489.2 639.79 489.48L633.54 497.66C633.26 498.05 632.91 498.25 632.49 498.25C632.23 498.25 631.93 498.15 631.61 497.96C630.63 497.33 629.58 496.82 628.45 496.44C627.33 496.06 626.21 495.87 625.1 495.87C623.31 495.87 621.63 496.35 620.05 497.31C618.47 498.27 617.2 499.58 616.26 501.23C615.31 502.89 614.84 504.72 614.84 506.73C614.84 508.74 615.32 510.61 616.28 512.29C617.24 513.97 618.5 515.29 620.07 516.25C621.64 517.21 623.32 517.69 625.11 517.69C626.44 517.69 627.57 517.54 628.51 517.25C629.45 516.96 630.51 516.39 631.68 515.57C631.98 515.35 632.3 515.24 632.63 515.24C633.02 515.24 633.36 515.44 633.64 515.83L639.76 524.07C640.02 524.4 640.15 524.71 640.15 525.02C640.15 525.35 639.98 525.64 639.63 525.9C637.6 527.43 635.35 528.6 632.88 529.42C630.41 530.24 627.82 530.65 625.11 530.65C620.66 530.65 616.61 529.58 612.94 527.43V527.41Z" fill="white"/>
<path d="M703.69 508.72C703.93 508.48 704.27 508.36 704.7 508.36H714.68C715.6 508.36 716.05 508.82 716.05 509.73V524.58C716.05 525.3 715.78 525.84 715.23 526.22C713.2 527.62 710.89 528.69 708.3 529.46C705.71 530.23 702.99 530.6 700.16 530.6C695.71 530.6 691.66 529.53 687.99 527.39C684.33 525.25 681.44 522.36 679.34 518.71C677.24 515.06 676.18 511.06 676.18 506.72C676.18 502.38 677.23 498.33 679.34 494.7C681.44 491.07 684.33 488.2 687.99 486.08C691.65 483.97 695.71 482.91 700.16 482.91C702.86 482.91 705.45 483.31 707.91 484.12C710.37 484.93 712.61 486.08 714.62 487.59C715.01 487.85 715.21 488.19 715.21 488.6C715.21 488.91 715.1 489.2 714.88 489.48L708.63 497.66C708.35 498.05 708.01 498.25 707.62 498.25C707.36 498.25 707.06 498.15 706.74 497.96C704.52 496.56 702.32 495.87 700.17 495.87C698.38 495.87 696.7 496.35 695.12 497.31C693.54 498.27 692.27 499.58 691.33 501.25C690.39 502.92 689.91 504.75 689.91 506.76C689.91 508.77 690.39 510.66 691.35 512.38C692.31 514.1 693.58 515.48 695.16 516.5C696.74 517.52 698.41 518.04 700.18 518.04H701.81C702.46 518.04 702.98 518.02 703.35 517.97V509.73C703.35 509.29 703.47 508.96 703.71 508.72H703.69Z" fill="white"/>
<path d="M767.42 529.78H756.4C755.48 529.78 755.03 529.32 755.03 528.41V518.7C755.03 517.78 755.49 517.33 756.4 517.33H767.42C768.34 517.33 768.79 517.79 768.79 518.7V528.41C768.79 529.33 768.33 529.78 767.42 529.78Z" fill="white"/>
<path d="M819.09 527.41C815.43 525.26 812.54 522.36 810.44 518.71C808.34 515.06 807.28 511.05 807.28 506.69C807.28 502.33 808.33 498.33 810.44 494.7C812.54 491.07 815.43 488.2 819.09 486.08C822.75 483.97 826.81 482.91 831.26 482.91C833.94 482.91 836.51 483.31 838.98 484.12C841.45 484.93 843.68 486.07 845.68 487.55C846.07 487.88 846.27 488.23 846.27 488.6C846.27 488.91 846.16 489.2 845.94 489.48L839.69 497.66C839.41 498.05 839.06 498.25 838.64 498.25C838.38 498.25 838.08 498.15 837.76 497.96C836.78 497.33 835.73 496.82 834.6 496.44C833.48 496.06 832.36 495.87 831.25 495.87C829.46 495.87 827.78 496.35 826.2 497.31C824.62 498.27 823.35 499.58 822.41 501.23C821.46 502.89 820.99 504.72 820.99 506.73C820.99 508.74 821.47 510.61 822.43 512.29C823.39 513.97 824.65 515.29 826.22 516.25C827.79 517.21 829.47 517.69 831.26 517.69C832.59 517.69 833.72 517.54 834.66 517.25C835.6 516.96 836.66 516.39 837.83 515.57C838.13 515.35 838.45 515.24 838.78 515.24C839.17 515.24 839.51 515.44 839.79 515.83L845.91 524.07C846.17 524.4 846.3 524.71 846.3 525.02C846.3 525.35 846.13 525.64 845.78 525.9C843.75 527.43 841.5 528.6 839.03 529.42C836.56 530.24 833.97 530.65 831.26 530.65C826.81 530.65 822.76 529.58 819.09 527.43V527.41Z" fill="white"/>
<path d="M916.97 529.42C916.73 529.66 916.39 529.78 915.96 529.78H887.47C886.55 529.78 886.1 529.32 886.1 528.41V485.21C886.1 484.29 886.56 483.84 887.47 483.84H898.23C899.15 483.84 899.6 484.3 899.6 485.21V516.87H915.95C916.39 516.87 916.72 516.99 916.96 517.23C917.2 517.47 917.32 517.81 917.32 518.24V528.41C917.32 528.85 917.2 529.18 916.96 529.42H916.97Z" fill="white"/>
</g>
<defs>
<clipPath id="clip0_63_2">
<rect width="919.85" height="530.63" fill="white"/>
</clipPath>
</defs>
</svg>
